<svg width="333.000000" height="40.000000" viewBox="0 0 333 40" fill="none" xmlns="http://www.w3.org/2000/svg" xmlns:xlink="http://www.w3.org/1999/xlink">
	<desc>
			Created with Pixso.
	</desc>
	<defs/>
	<path id="Rectangle 262" d="M28.5 0L44.5 0L16 39.5L0 39.5L28.5 0Z" fill="#FFFFFF" fill-opacity="1.000000" fill-rule="nonzero"/>
	<path id="Rectangle 263" d="M60.5 0L76.5 0L48 39.5L32 39.5L60.5 0Z" fill="#FFFFFF" fill-opacity="1.000000" fill-rule="nonzero"/>
	<path id="Rectangle 264" d="M92.5 0L108.5 0L80 39.5L64 39.5L92.5 0Z" fill="#FFFFFF" fill-opacity="1.000000" fill-rule="nonzero"/>
	<path id="Rectangle 265" d="M124.5 0L140.5 0L112 39.5L96 39.5L124.5 0Z" fill="#FFFFFF" fill-opacity="1.000000" fill-rule="nonzero"/>
	<path id="Rectangle 266" d="M188.5 0L204.5 0L176 39.5L160 39.5L188.5 0Z" fill="#FFFFFF" fill-opacity="1.000000" fill-rule="nonzero"/>
	<path id="Rectangle 267" d="M156.5 0L172.5 0L144 39.5L128 39.5L156.5 0Z" fill="#FFFFFF" fill-opacity="1.000000" fill-rule="nonzero"/>
	<path id="Rectangle 268" d="M220.5 0L236.5 0L208 39.5L192 39.5L220.5 0Z" fill="#FFFFFF" fill-opacity="1.000000" fill-rule="nonzero"/>
	<path id="Rectangle 269" d="M252.5 0L268.5 0L240 39.5L224 39.5L252.5 0Z" fill="#FFFFFF" fill-opacity="1.000000" fill-rule="nonzero"/>
	<path id="Rectangle 270" d="M284.5 0L300.5 0L272 39.5L256 39.5L284.5 0Z" fill="#FFFFFF" fill-opacity="1.000000" fill-rule="nonzero"/>
	<path id="Rectangle 271" d="M316.5 0L332.5 0L304 39.5L288 39.5L316.5 0Z" fill="#FFFFFF" fill-opacity="1.000000" fill-rule="nonzero"/>
</svg>
