<svg width="333" height="40" viewBox="0 0 333 40" fill="none" xmlns="http://www.w3.org/2000/svg">
<path d="M28.5 0H44.5L16 39.5H0L28.5 0Z" fill="#1B5D63"/>
<path d="M60.5 0H76.5L48 39.5H32L60.5 0Z" fill="#1B5D63"/>
<path d="M92.5 0H108.5L80 39.5H64L92.5 0Z" fill="#1B5D63"/>
<path d="M124.5 0H140.5L112 39.5H96L124.5 0Z" fill="#1B5D63"/>
<path d="M188.5 0H204.5L176 39.5H160L188.5 0Z" fill="#1B5D63"/>
<path d="M156.5 0H172.5L144 39.5H128L156.5 0Z" fill="#1B5D63"/>
<path d="M220.5 0H236.5L208 39.5H192L220.5 0Z" fill="#1B5D63"/>
<path d="M252.5 0H268.5L240 39.5H224L252.5 0Z" fill="#1B5D63"/>
<path d="M284.5 0H300.5L272 39.5H256L284.5 0Z" fill="#1B5D63"/>
<path d="M316.5 0H332.5L304 39.5H288L316.5 0Z" fill="#1B5D63"/>
</svg>
