<svg width="18" height="18" viewBox="0 0 18 18" fill="none" xmlns="http://www.w3.org/2000/svg">
<g id="&#240;&#159;&#166;&#134; icon &#34;whatsapp&#34;">
<path id="Vector" d="M12.507 10.2815C12.292 10.1726 11.2449 9.66171 11.0492 9.58879C10.8535 9.5191 10.7115 9.48264 10.5688 9.69763C10.4295 9.90726 10.0188 10.3871 9.89332 10.527C9.76786 10.667 9.64455 10.6777 9.43278 10.5828C9.21779 10.474 8.531 10.2504 7.71553 9.51909C7.0786 8.9524 6.65452 8.25435 6.52853 8.03936C6.40307 7.82705 6.51459 7.70696 6.62074 7.6008C6.71832 7.50322 6.83573 7.35525 6.94457 7.22658C7.04804 7.09791 7.08128 7.01159 7.15688 6.87219C7.22658 6.72154 7.19066 6.60412 7.13758 6.49797C7.0845 6.39181 6.6572 5.33938 6.47867 4.92012C6.30818 4.50408 6.12964 4.55716 5.99829 4.55716C5.87551 4.5459 5.7329 4.5459 5.59083 4.5459C5.44875 4.5459 5.2166 4.59898 5.02091 4.80271C4.82522 5.0177 4.27247 5.53132 4.27247 6.57035C4.27247 7.61206 5.03753 8.62 5.14369 8.77065C5.25252 8.91004 6.64862 11.0546 8.79049 11.9762C9.30142 12.1912 9.69816 12.3199 10.0081 12.426C10.519 12.5879 10.9854 12.5654 11.3538 12.5123C11.7612 12.4453 12.6158 11.9955 12.7949 11.4931C12.9766 10.9876 12.9766 10.5688 12.9236 10.474C12.8705 10.3764 12.7311 10.3233 12.5161 10.2284L12.507 10.2815ZM8.62268 15.5479H8.61142C7.34346 15.5479 6.08997 15.2043 4.99518 14.562L4.73837 14.4087L2.05769 15.1067L2.77826 12.4984L2.60509 12.2303C1.89846 11.105 1.52155 9.80646 1.52155 8.47202C1.52155 4.57967 4.70781 1.40468 8.62804 1.40468C10.527 1.40468 12.3086 2.14454 13.649 3.48488C14.9893 4.81397 15.7292 6.59555 15.7292 8.48328C15.7238 12.3729 12.5402 15.5479 8.62536 15.5479H8.62268ZM14.6681 2.46569C13.0372 0.890522 10.8927 0 8.61142 0C3.90629 0 0.075059 3.81461 0.0723784 8.50258C0.0723784 9.99947 0.463222 11.4599 1.21167 12.7525L0 17.1564L4.52928 15.9752C5.7774 16.6481 7.18208 17.0084 8.61195 17.0111H8.61463C13.3224 17.0111 17.1537 13.1965 17.1564 8.50526C17.1564 6.23526 16.2712 4.09876 14.6574 2.49303L14.6681 2.46569Z" fill="white"/>
</g>
</svg>
