<svg width="29" height="28" viewBox="0 0 29 28" fill="none" xmlns="http://www.w3.org/2000/svg">
<path d="M20.6464 16.7799C20.2955 16.6022 18.5866 15.7684 18.2672 15.6494C17.9479 15.5356 17.716 15.4761 17.4832 15.827C17.2557 16.1691 16.5855 16.9522 16.3807 17.1806C16.176 17.409 15.9747 17.4265 15.6291 17.2716C15.2782 17.094 14.1574 16.7291 12.8265 15.5356C11.787 14.6107 11.0949 13.4715 10.8892 13.1206C10.6845 12.7741 10.8665 12.5781 11.0397 12.4049C11.199 12.2456 11.3906 12.0041 11.5682 11.7941C11.7371 11.5841 11.7914 11.4432 11.9147 11.2157C12.0285 10.9699 11.9699 10.7782 11.8832 10.605C11.7966 10.4317 11.0992 8.71412 10.8079 8.02987C10.5296 7.35087 10.2382 7.43749 10.0239 7.43749C9.82349 7.41912 9.59074 7.41912 9.35887 7.41912C9.12699 7.41912 8.74812 7.50574 8.42874 7.83824C8.10937 8.18912 7.20724 9.02737 7.20724 10.7231C7.20724 12.4232 8.45587 14.0682 8.62912 14.3141C8.80674 14.5416 11.0852 18.0416 14.5809 19.5457C15.4147 19.8966 16.0622 20.1066 16.568 20.2799C17.4019 20.5441 18.1631 20.5074 18.7642 20.4207C19.4292 20.3114 20.824 19.5772 21.1162 18.7574C21.4129 17.9322 21.4129 17.2489 21.3262 17.094C21.2396 16.9347 21.0121 16.8481 20.6612 16.6932L20.6464 16.7799ZM14.307 25.375H14.2886C12.2192 25.375 10.1735 24.8141 8.38674 23.7658L7.96762 23.5156L3.59262 24.6548L4.76862 20.398L4.486 19.9605C3.33275 18.1239 2.71762 16.0046 2.71762 13.8267C2.71762 7.47424 7.91774 2.2925 14.3157 2.2925C17.415 2.2925 20.3226 3.5 22.5101 5.68749C24.6976 7.85662 25.9051 10.7642 25.9051 13.8451C25.8963 20.1932 20.7006 25.375 14.3114 25.375H14.307ZM24.1735 4.02412C21.5117 1.45337 18.0117 0 14.2886 0C6.60962 0 0.356875 6.22562 0.3525 13.8766C0.3525 16.3196 0.990374 18.7031 2.21187 20.8127L0.234375 28L7.62637 26.0723C9.66336 27.1705 11.9559 27.7585 14.2895 27.7628H14.2939C21.9772 27.7628 28.23 21.5372 28.2343 13.881C28.2343 10.1762 26.7897 6.68937 24.156 4.06875L24.1735 4.02412Z" fill="white"/>
</svg>
