<svg width="16" height="17" viewBox="0 0 16 17" fill="none" xmlns="http://www.w3.org/2000/svg">
<g id="&#240;&#159;&#166;&#134; icon &#34;instagram&#34;">
<path id="Vector (Stroke)" fill-rule="evenodd" clip-rule="evenodd" d="M4.21045 8.26162C4.21045 6.11061 5.95418 4.36688 8.10519 4.36688C10.2562 4.36688 11.9999 6.11061 11.9999 8.26162C11.9999 10.4126 10.2562 12.1564 8.10519 12.1564C5.95418 12.1564 4.21045 10.4126 4.21045 8.26162ZM8.10519 5.5968C6.63345 5.5968 5.44037 6.78988 5.44037 8.26162C5.44037 9.73333 6.63345 10.9264 8.10519 10.9264C9.57689 10.9264 10.77 9.73333 10.77 8.26162C10.77 6.78988 9.5769 5.5968 8.10519 5.5968Z" fill="white"/>
<path id="Vector (Stroke)_2" fill-rule="evenodd" clip-rule="evenodd" d="M4.71795 1.38714C2.79204 1.38714 1.23077 2.94841 1.23077 4.87432V11.4384C1.23077 13.3643 2.79204 14.9256 4.71795 14.9256H11.2821C13.2079 14.9256 14.7692 13.3643 14.7692 11.4384V4.87432C14.7692 2.94841 13.2079 1.38714 11.2821 1.38714H4.71795ZM0 4.87432C0 2.26867 2.1123 0.156372 4.71795 0.156372H11.2821C13.8877 0.156372 16 2.26867 16 4.87432V11.4384C16 14.0441 13.8877 16.1564 11.2821 16.1564H4.71795C2.1123 16.1564 0 14.0441 0 11.4384V4.87432Z" fill="white"/>
<path id="Vector (Stroke)_3" fill-rule="evenodd" clip-rule="evenodd" d="M12.8796 3.26472C13.0942 3.49636 13.1116 3.89276 12.9184 4.15011L12.9114 4.1594C12.7183 4.41675 12.3877 4.43759 12.1731 4.20596C11.9584 3.97432 11.9411 3.57792 12.1342 3.32057L12.1412 3.31128C12.3344 3.05393 12.665 3.03308 12.8796 3.26472Z" fill="white"/>
</g>
</svg>
