<svg width="17" height="17" viewBox="0 0 17 17" fill="none" xmlns="http://www.w3.org/2000/svg">
<g id="&#240;&#159;&#166;&#134; icon &#34;linkedin&#34;">
<path id="Vector" d="M14.3525 14.3583H11.8605V10.4479C11.8605 9.51549 11.8411 8.31717 10.5574 8.31717C9.25803 8.31717 9.06007 9.32858 9.06007 10.379V14.3577H6.56497V6.31751H8.96161V7.41422H8.99373C9.32858 6.78083 10.1431 6.11481 11.3583 6.11481C13.886 6.11481 14.3551 7.77908 14.3551 9.94301V14.3577L14.3525 14.3583ZM3.74607 5.2187C2.9421 5.2187 2.29766 4.56847 2.29766 3.76766C2.29766 2.96948 2.94473 2.3203 3.74607 2.3203C4.54741 2.3203 5.19659 2.96948 5.19659 3.76766C5.19659 4.56847 4.54741 5.2187 3.74607 5.2187ZM4.99599 14.3583H2.49562V6.31804H4.99599V14.3583ZM15.6034 0H1.24255C0.556514 0 0 0.542825 0 1.21464V15.634C0 16.3058 0.556514 16.8486 1.24255 16.8486H15.6008C16.2858 16.8486 16.8481 16.3058 16.8481 15.634V1.21464C16.8481 0.542825 16.2858 0 15.6008 0L15.6034 0Z" fill="white"/>
</g>
</svg>
