<svg width="87" height="18" viewBox="0 0 87 18" fill="none" xmlns="http://www.w3.org/2000/svg">
<path d="M0.681108 9.72372V7.88281L9.42543 3.84304V6.11222L3.21236 8.7777L3.28267 8.65625V8.95028L3.21236 8.82884L9.42543 11.4943V13.7635L0.681108 9.72372ZM12.3002 4.18182H14.6142V14.5625C14.6142 15.2699 14.4799 15.8537 14.2115 16.3139C13.943 16.7741 13.5552 17.1172 13.0481 17.343C12.541 17.5689 11.9252 17.6818 11.2008 17.6818C11.1156 17.6818 11.0368 17.6797 10.9643 17.6754C10.8919 17.6754 10.813 17.6733 10.7278 17.669V15.7834C10.7917 15.7876 10.8493 15.7898 10.9004 15.7898C10.9515 15.794 11.0048 15.7962 11.0602 15.7962C11.5034 15.7962 11.8208 15.6875 12.0126 15.4702C12.2044 15.2571 12.3002 14.9439 12.3002 14.5305V4.18182ZM13.4508 2.78835C13.0801 2.78835 12.7626 2.6669 12.4984 2.42401C12.2385 2.17685 12.1085 1.88068 12.1085 1.53551C12.1085 1.18608 12.2385 0.889914 12.4984 0.647016C12.7626 0.399857 13.0801 0.276278 13.4508 0.276278C13.8173 0.276278 14.1305 0.399857 14.3904 0.647016C14.6547 0.889914 14.7868 1.18608 14.7868 1.53551C14.7868 1.88068 14.6547 2.17685 14.3904 2.42401C14.1305 2.6669 13.8173 2.78835 13.4508 2.78835ZM19.8189 14.1982C19.1967 14.1982 18.6364 14.0874 18.1378 13.8658C17.6435 13.6399 17.2514 13.3075 16.9616 12.8686C16.6761 12.4297 16.5334 11.8885 16.5334 11.245C16.5334 10.6911 16.6357 10.233 16.8402 9.87074C17.0447 9.50852 17.3239 9.21875 17.6776 9.00142C18.0313 8.78409 18.4297 8.62003 18.8729 8.50923C19.3203 8.39418 19.7827 8.31108 20.2599 8.25994C20.8352 8.20028 21.3018 8.14702 21.6598 8.10014C22.0178 8.04901 22.2777 7.9723 22.4396 7.87003C22.6058 7.76349 22.6889 7.59943 22.6889 7.37784V7.33949C22.6889 6.85795 22.5462 6.48509 22.2607 6.22088C21.9751 5.95668 21.5639 5.82457 21.027 5.82457C20.4602 5.82457 20.0107 5.94815 19.6783 6.19531C19.3501 6.44247 19.1286 6.73437 19.0135 7.07102L16.853 6.7642C17.0234 6.16761 17.3047 5.66903 17.6967 5.26847C18.0888 4.86364 18.5682 4.56108 19.1349 4.3608C19.7017 4.15625 20.3281 4.05398 21.0142 4.05398C21.4872 4.05398 21.9581 4.10938 22.4268 4.22017C22.8956 4.33097 23.3239 4.5142 23.7116 4.76989C24.0994 5.02131 24.4105 5.36435 24.6449 5.79901C24.8835 6.23366 25.0028 6.77699 25.0028 7.42898V14H22.7784V12.6513H22.7017C22.5611 12.924 22.3629 13.1797 22.1072 13.4183C21.8558 13.6527 21.5384 13.8423 21.1548 13.9872C20.7756 14.1278 20.3303 14.1982 19.8189 14.1982ZM20.4197 12.4979C20.8842 12.4979 21.2869 12.4062 21.6278 12.223C21.9688 12.0355 22.2308 11.7884 22.4141 11.4815C22.6016 11.1747 22.6953 10.8402 22.6953 10.478V9.32102C22.6229 9.38068 22.4993 9.43608 22.3246 9.48722C22.1541 9.53835 21.9624 9.5831 21.7493 9.62145C21.5362 9.6598 21.3253 9.69389 21.1165 9.72372C20.9077 9.75355 20.7266 9.77912 20.5732 9.80043C20.228 9.8473 19.919 9.92401 19.6463 10.0305C19.3736 10.1371 19.1584 10.2862 19.0007 10.478C18.843 10.6655 18.7642 10.9084 18.7642 11.2067C18.7642 11.6328 18.9197 11.9545 19.2308 12.1719C19.5419 12.3892 19.9382 12.4979 20.4197 12.4979ZM30.973 14.1726C30.2017 14.1726 29.5114 13.9744 28.902 13.5781C28.2926 13.1818 27.8111 12.6065 27.4574 11.8523C27.1037 11.098 26.9268 10.1818 26.9268 9.10369C26.9268 8.01278 27.1058 7.09233 27.4638 6.34233C27.826 5.58807 28.3139 5.01918 28.9276 4.63565C29.5412 4.24787 30.2251 4.05398 30.9794 4.05398C31.5547 4.05398 32.0277 4.15199 32.3984 4.34801C32.7692 4.53977 33.0632 4.77202 33.2805 5.04474C33.4979 5.31321 33.6662 5.56676 33.7855 5.8054H33.8814V0.909091H36.2017V14H33.9261V12.4531H33.7855C33.6662 12.6918 33.4936 12.9453 33.2678 13.2138C33.0419 13.478 32.7436 13.7038 32.3729 13.8913C32.0021 14.0788 31.5355 14.1726 30.973 14.1726ZM31.6186 12.2741C32.1087 12.2741 32.5263 12.142 32.8714 11.8778C33.2166 11.6094 33.4787 11.2365 33.6577 10.7592C33.8366 10.282 33.9261 9.72585 33.9261 9.09091C33.9261 8.45597 33.8366 7.90412 33.6577 7.43537C33.483 6.96662 33.223 6.60227 32.8778 6.34233C32.5369 6.08239 32.1172 5.95241 31.6186 5.95241C31.103 5.95241 30.6726 6.08665 30.3274 6.35511C29.9822 6.62358 29.7223 6.99432 29.5476 7.46733C29.3729 7.94034 29.2855 8.48153 29.2855 9.09091C29.2855 9.70455 29.3729 10.2521 29.5476 10.7337C29.7266 11.2109 29.9886 11.5881 30.3338 11.8651C30.6832 12.1378 31.1115 12.2741 31.6186 12.2741ZM46.4274 6.77699L44.318 7.0071C44.2583 6.79403 44.1539 6.59375 44.0048 6.40625C43.8599 6.21875 43.6639 6.06747 43.4167 5.95241C43.1696 5.83736 42.867 5.77983 42.5091 5.77983C42.0275 5.77983 41.6227 5.88423 41.2946 6.09304C40.9707 6.30185 40.8109 6.57244 40.8152 6.90483C40.8109 7.19034 40.9153 7.42259 41.1284 7.60156C41.3457 7.78054 41.7037 7.92756 42.2022 8.04261L43.877 8.40057C44.8059 8.60085 45.4963 8.91832 45.948 9.35298C46.4039 9.78764 46.6341 10.3565 46.6383 11.0597C46.6341 11.6776 46.4529 12.223 46.095 12.696C45.7413 13.1648 45.2491 13.5312 44.6184 13.7955C43.9877 14.0597 43.2633 14.1918 42.4451 14.1918C41.2434 14.1918 40.2761 13.9403 39.5431 13.4375C38.8102 12.9304 38.3734 12.2251 38.2328 11.3217L40.4892 11.1044C40.5914 11.5476 40.8088 11.8821 41.1412 12.108C41.4735 12.3338 41.9061 12.4467 42.4387 12.4467C42.9885 12.4467 43.4295 12.3338 43.7619 12.108C44.0985 11.8821 44.2669 11.603 44.2669 11.2706C44.2669 10.9893 44.1582 10.7571 43.9409 10.5739C43.7278 10.3906 43.3954 10.25 42.9437 10.152L41.269 9.80043C40.3272 9.6044 39.6305 9.27415 39.1788 8.80966C38.7271 8.34091 38.5034 7.74858 38.5076 7.03267C38.5034 6.42756 38.6674 5.90341 38.9998 5.46023C39.3365 5.01278 39.8031 4.66761 40.3997 4.42472C41.0005 4.17756 41.693 4.05398 42.4771 4.05398C43.6277 4.05398 44.5332 4.29901 45.1937 4.78906C45.8585 5.27912 46.2697 5.94176 46.4274 6.77699ZM52.829 14.1918C51.8702 14.1918 51.0392 13.9808 50.3361 13.5589C49.633 13.1371 49.0875 12.5469 48.6998 11.7884C48.3162 11.0298 48.1245 10.1435 48.1245 9.12926C48.1245 8.11506 48.3162 7.22656 48.6998 6.46378C49.0875 5.70099 49.633 5.10866 50.3361 4.68679C51.0392 4.26491 51.8702 4.05398 52.829 4.05398C53.7878 4.05398 54.6188 4.26491 55.3219 4.68679C56.025 5.10866 56.5684 5.70099 56.9519 6.46378C57.3397 7.22656 57.5336 8.11506 57.5336 9.12926C57.5336 10.1435 57.3397 11.0298 56.9519 11.7884C56.5684 12.5469 56.025 13.1371 55.3219 13.5589C54.6188 13.9808 53.7878 14.1918 52.829 14.1918ZM52.8418 12.3381C53.3617 12.3381 53.7963 12.1953 54.1458 11.9098C54.4952 11.62 54.7551 11.2322 54.9256 10.7464C55.1003 10.2607 55.1877 9.71946 55.1877 9.12287C55.1877 8.52202 55.1003 7.97869 54.9256 7.4929C54.7551 7.00284 54.4952 6.61293 54.1458 6.32315C53.7963 6.03338 53.3617 5.88849 52.8418 5.88849C52.3091 5.88849 51.8659 6.03338 51.5123 6.32315C51.1628 6.61293 50.9007 7.00284 50.726 7.4929C50.5556 7.97869 50.4703 8.52202 50.4703 9.12287C50.4703 9.71946 50.5556 10.2607 50.726 10.7464C50.9007 11.2322 51.1628 11.62 51.5123 11.9098C51.8659 12.1953 52.3091 12.3381 52.8418 12.3381ZM61.8114 8.24716V14H59.4975V4.18182H61.7092V5.85014H61.8242C62.0501 5.30043 62.4102 4.86364 62.9045 4.53977C63.4031 4.21591 64.0188 4.05398 64.7518 4.05398C65.4293 4.05398 66.0195 4.19886 66.5224 4.48864C67.0295 4.77841 67.4215 5.19815 67.6985 5.74787C67.9798 6.29758 68.1183 6.96449 68.114 7.74858V14H65.8001V8.10653C65.8001 7.45028 65.6296 6.93679 65.2887 6.56605C64.9521 6.19531 64.4854 6.00994 63.8888 6.00994C63.484 6.00994 63.1239 6.09943 62.8086 6.27841C62.4975 6.45312 62.2525 6.70668 62.0735 7.03906C61.8988 7.37145 61.8114 7.77415 61.8114 8.24716ZM75.81 0.295454L71.5913 15.9688H69.565L73.7837 0.295454H75.81ZM86.5231 9.72372L77.7788 13.7635V11.4943L83.9918 8.82884L83.9215 8.95028V8.65625L83.9918 8.7777L77.7788 6.11222V3.84304L86.5231 7.88281V9.72372Z" fill="#fff"/>
</svg>
